<svg width="1221" height="90" viewBox="0 0 1221 90" fill="none" xmlns="http://www.w3.org/2000/svg">
<path d="M17.5179 1.72714V88.083H9.49916V1.72714H17.5179ZM50.8266 84.2587V88.083H17.1478V84.2587H50.8266ZM58.3519 68.0978L51.1967 88.083H30.718L35.1592 84.2587C39.5181 84.2587 43.0546 83.6007 45.7686 82.2848C48.5649 80.8867 50.8266 78.954 52.5537 76.4866C54.2808 74.0193 55.8024 71.2231 57.1182 68.0978H58.3519ZM9.86926 79.0773V88.083H1.479e-05V86.8494C1.479e-05 86.8494 0.246746 86.8494 0.740208 86.8494C1.31591 86.8494 1.60377 86.8494 1.60377 86.8494C3.7421 86.8494 5.55146 86.1092 7.03185 84.6288C8.59448 83.0661 9.41692 81.2157 9.49916 79.0773H9.86926ZM9.86926 10.7328H9.49916C9.41692 8.59449 8.59448 6.78513 7.03185 5.30475C5.55146 3.74211 3.7421 2.96079 1.60377 2.96079C1.60377 2.96079 1.31591 2.96079 0.740208 2.96079C0.246746 2.96079 1.479e-05 2.96079 1.479e-05 2.96079V1.72714H9.86926V10.7328ZM17.1478 10.7328V1.72714H27.0171V2.96079C26.9348 2.96079 26.647 2.96079 26.1535 2.96079C25.66 2.96079 25.4133 2.96079 25.4133 2.96079C23.275 2.96079 21.4245 3.74211 19.8619 5.30475C18.3815 6.78513 17.6002 8.59449 17.5179 10.7328H17.1478ZM103.322 12.3366L137.247 87.3428H127.501L101.224 23.3161L103.322 12.3366ZM79.512 79.0773C78.6073 81.5446 78.7307 83.4774 79.8821 84.8755C81.0335 86.1914 82.3494 86.8494 83.8298 86.8494H84.8167V88.083H61.2539V86.8494C61.2539 86.8494 61.4184 86.8494 61.7473 86.8494C62.0763 86.8494 62.2408 86.8494 62.2408 86.8494C63.9679 86.8494 65.7362 86.2736 67.5455 85.1222C69.3549 83.8886 70.9175 81.8736 72.2334 79.0773H79.512ZM103.322 12.3366L104.185 20.8488L75.9344 87.7129H68.1624L97.4 25.0432C97.4 25.0432 97.6056 24.5498 98.0168 23.5628C98.5103 22.5759 99.0449 21.3834 99.6206 19.9852C100.279 18.5049 100.854 17.0656 101.348 15.6674C101.841 14.2693 102.129 13.159 102.211 12.3366H103.322ZM117.879 59.3388V63.0398H85.1868V59.3388H117.879ZM124.17 79.0773H133.546C134.78 81.8736 136.301 83.8886 138.111 85.1222C139.92 86.2736 141.647 86.8494 143.292 86.8494C143.292 86.8494 143.456 86.8494 143.785 86.8494C144.114 86.8494 144.279 86.8494 144.279 86.8494V88.083H118.989V86.8494H119.976C121.374 86.8494 122.649 86.1914 123.8 84.8755C124.952 83.4774 125.075 81.5446 124.17 79.0773ZM197.83 1.72714H214.114C219.378 1.72714 223.901 2.67294 227.685 4.56455C231.468 6.45615 234.387 9.21132 236.444 12.83C238.5 16.3665 239.528 20.6021 239.528 25.5367C239.528 29.3199 238.787 32.733 237.307 35.776C235.827 38.7368 233.853 41.2452 231.386 43.3013C228.918 45.3574 226.122 46.92 222.997 47.9892C219.871 48.9761 216.623 49.3462 213.251 49.0995C209.961 48.8528 206.754 47.907 203.628 46.2621V45.0284C203.628 45.0284 204.327 45.1518 205.726 45.3985C207.124 45.563 208.892 45.6041 211.03 45.5219C213.251 45.3574 215.554 44.9051 217.939 44.1649C220.406 43.3424 222.668 41.9443 224.724 39.9705C226.862 37.9966 228.466 35.2414 229.535 31.705C229.782 30.8003 229.987 29.69 230.152 28.3741C230.316 26.976 230.357 25.6189 230.275 24.303C230.193 18.6282 228.713 14.0637 225.834 10.6095C222.956 7.15523 218.885 5.42811 213.621 5.42811H199.064C199.064 5.42811 198.94 5.14026 198.694 4.56455C198.529 3.9066 198.324 3.28977 198.077 2.71407C197.912 2.05612 197.83 1.72714 197.83 1.72714ZM199.434 1.72714V88.083H191.415V1.72714H199.434ZM191.785 79.0773V88.083H181.916V86.8494C181.916 86.8494 182.163 86.8494 182.656 86.8494C183.232 86.8494 183.52 86.8494 183.52 86.8494C185.658 86.8494 187.467 86.1092 188.948 84.6288C190.51 83.0661 191.333 81.2157 191.415 79.0773H191.785ZM191.785 10.7328H191.415C191.415 8.59449 190.634 6.78513 189.071 5.30475C187.509 3.74211 185.658 2.96079 183.52 2.96079C183.52 2.96079 183.273 2.96079 182.78 2.96079C182.286 2.96079 182.039 2.96079 182.039 2.96079L181.916 1.72714H191.785V10.7328ZM199.064 79.0773H199.434C199.516 81.2157 200.297 83.0661 201.778 84.6288C203.34 86.1092 205.191 86.8494 207.329 86.8494C207.329 86.8494 207.576 86.8494 208.069 86.8494C208.645 86.8494 208.933 86.8494 208.933 86.8494V88.083H199.064V79.0773ZM266.345 14.0637H282.259C286.125 14.0637 289.579 14.516 292.622 15.4207C295.747 16.3254 298.379 17.6413 300.517 19.3684C302.738 21.0955 304.424 23.1927 305.575 25.6601C306.727 28.1274 307.303 30.9236 307.303 34.0489C307.303 37.5031 306.48 40.7106 304.835 43.6714C303.19 46.6322 300.888 49.0584 297.927 50.95C295.048 52.8416 291.759 53.993 288.058 54.4042C289.456 54.9799 291.059 56.2547 292.869 58.2286C294.76 60.2024 296.364 62.1351 297.68 64.0267C297.68 64.0267 298.215 64.7669 299.284 66.2473C300.353 67.6455 301.71 69.4137 303.355 71.552C305.082 73.6081 306.768 75.582 308.413 77.4736C310.14 79.3652 311.703 81.0101 313.101 82.4082C314.581 83.8063 316.144 84.9166 317.789 85.7391C319.516 86.4793 321.49 86.8494 323.71 86.8494V88.083H319.886C315.362 88.083 311.62 87.5073 308.66 86.3559C305.781 85.2045 303.437 83.8063 301.628 82.1615C299.818 80.4343 298.256 78.7895 296.94 77.2268C296.611 76.8156 295.83 75.7876 294.596 74.1427C293.444 72.4156 292.17 70.5651 290.772 68.5913C289.373 66.6174 288.099 64.8492 286.947 63.2865C285.796 61.6417 285.097 60.6547 284.85 60.3258C283.205 58.1874 281.314 56.2958 279.175 54.6509C277.037 52.9238 274.775 52.0603 272.39 52.0603V50.8266C272.39 50.8266 273.048 50.8677 274.364 50.95C275.68 50.95 277.366 50.9089 279.422 50.8266C281.725 50.7444 284.028 50.5799 286.33 50.3332C288.633 50.0042 290.772 49.0995 292.745 47.6191C294.802 46.1387 296.405 43.6714 297.557 40.2172C297.886 39.3125 298.132 38.2433 298.297 37.0097C298.461 35.776 298.502 34.5012 298.42 33.1854C298.338 30.8825 297.886 28.8264 297.063 27.0171C296.323 25.2077 295.213 23.6451 293.732 22.3292C292.334 21.0133 290.648 19.9852 288.674 19.245C286.701 18.5049 284.48 18.0936 282.013 18.0114C278.147 17.8469 274.775 17.8058 271.897 17.888C269.018 17.9703 267.579 17.9703 267.579 17.888C267.579 17.8058 267.455 17.4768 267.209 16.9011C267.044 16.2432 266.839 15.6263 266.592 15.0506C266.427 14.3927 266.345 14.0637 266.345 14.0637ZM267.826 14.0637V88.083H259.93V14.0637H267.826ZM260.3 80.1876L261.781 88.083H251.295V86.8494C251.295 86.8494 251.582 86.8494 252.158 86.8494C252.734 86.8494 253.022 86.8494 253.022 86.8494C254.996 86.8494 256.64 86.1914 257.956 84.8755C259.272 83.5596 259.971 81.997 260.054 80.1876H260.3ZM260.3 21.8357H260.054C259.971 19.9441 259.272 18.3815 257.956 17.1478C256.64 15.9142 254.996 15.2973 253.022 15.2973C253.022 15.2973 252.734 15.2973 252.158 15.2973C251.582 15.2973 251.295 15.2973 251.295 15.2973V14.0637H261.781L260.3 21.8357ZM267.455 80.1876H267.826C267.908 81.997 268.607 83.5596 269.923 84.8755C271.239 86.1914 272.884 86.8494 274.857 86.8494C274.857 86.8494 275.104 86.8494 275.598 86.8494C276.173 86.8494 276.461 86.8494 276.461 86.8494L276.585 88.083H265.975L267.455 80.1876ZM346.527 14.0637V88.083H338.755V14.0637H346.527ZM339.125 80.1876V88.083H328.639V86.8494C328.639 86.8494 328.927 86.8494 329.503 86.8494C330.078 86.8494 330.366 86.8494 330.366 86.8494C332.669 86.8494 334.602 86.1914 336.164 84.8755C337.809 83.5596 338.673 81.997 338.755 80.1876H339.125ZM346.157 80.1876H346.527C346.609 81.997 347.432 83.5596 348.994 84.8755C350.639 86.1914 352.613 86.8494 354.916 86.8494C354.916 86.8494 355.163 86.8494 355.656 86.8494C356.232 86.8494 356.52 86.8494 356.52 86.8494L356.643 88.083H346.157V80.1876ZM346.157 21.9591V14.0637H356.643L356.52 15.2973C356.52 15.2973 356.232 15.2973 355.656 15.2973C355.163 15.2973 354.916 15.2973 354.916 15.2973C352.613 15.2973 350.639 15.9553 348.994 17.2712C347.432 18.5049 346.609 20.0675 346.527 21.9591H346.157ZM339.125 21.9591H338.755C338.673 20.0675 337.809 18.5049 336.164 17.2712C334.602 15.9553 332.669 15.2973 330.366 15.2973C330.284 15.2973 329.955 15.2973 329.379 15.2973C328.886 15.2973 328.639 15.2973 328.639 15.2973V14.0637H339.125V21.9591ZM449.406 12.3366L450.516 20.3553L421.649 77.2268C421.649 77.2268 421.32 77.9259 420.662 79.3241C420.086 80.7222 419.469 82.4082 418.811 84.382C418.154 86.2736 417.66 88.083 417.331 89.8101H416.097L414.37 82.0381L449.406 12.3366ZM377.114 79.8175V88.083H364.284V86.8494C364.284 86.8494 364.572 86.8494 365.147 86.8494C365.805 86.8494 366.134 86.8494 366.134 86.8494C368.273 86.8494 370.123 86.2325 371.686 84.9989C373.331 83.7652 374.277 82.0381 374.523 79.8175H377.114ZM380.815 81.668C380.733 82.9017 381.021 84.0942 381.678 85.2456C382.336 86.3148 383.57 86.8905 385.379 86.9727H387.107V88.083H380.075V81.668H380.815ZM384.146 12.3366H385.379L387.847 19.6151L380.198 88.083H373.413L384.146 12.3366ZM385.379 12.3366L418.935 76.8567L416.097 89.8101L383.035 25.9068L385.379 12.3366ZM450.516 12.3366L461.619 88.083H452.244L444.225 26.0302L449.406 12.3366H450.516ZM457.918 79.8175H460.386C460.715 82.0381 461.702 83.7652 463.346 84.9989C464.991 86.2325 466.842 86.8494 468.898 86.8494C468.898 86.8494 469.186 86.8494 469.761 86.8494C470.419 86.8494 470.748 86.8494 470.748 86.8494V88.083H457.918V79.8175ZM451.38 81.668H452.244V88.083H445.088V86.9727H446.939C448.83 86.8905 450.064 86.2736 450.64 85.1222C451.298 83.9708 451.544 82.8194 451.38 81.668ZM495.166 14.0637V88.083H487.271V14.0637H495.166ZM528.351 84.2587L528.105 88.083H494.919V84.2587H528.351ZM522.553 49.2229V52.9238H494.919V49.2229H522.553ZM528.228 14.0637V17.888H494.919V14.0637H528.228ZM535.26 70.4417L528.475 88.083H509.723L513.918 84.2587C518.03 84.2587 521.32 83.683 523.787 82.5316C526.336 81.2979 528.393 79.653 529.955 77.5969C531.518 75.4586 532.875 73.0735 534.026 70.4417H535.26ZM522.553 52.6771V59.7089H521.196V58.1052C521.196 56.707 520.785 55.5145 519.963 54.5276C519.14 53.4584 517.865 52.9238 516.138 52.9238V52.6771H522.553ZM522.553 42.4378V49.4696H516.138V49.2229C517.865 49.2229 519.14 48.7294 519.963 47.7425C520.785 46.6733 521.196 45.4397 521.196 44.0415V42.4378H522.553ZM528.228 17.5179V26.0302H526.871V24.1797C526.871 22.4525 526.295 20.9722 525.144 19.7385C524.075 18.5049 522.594 17.888 520.703 17.888V17.5179H528.228ZM528.228 12.0898V15.2973L514.164 14.0637C516.714 14.0637 519.428 13.8581 522.307 13.4469C525.185 12.9534 527.159 12.5011 528.228 12.0898ZM487.517 80.1876L489.121 88.083H478.388V86.8494C478.388 86.8494 478.676 86.8494 479.252 86.8494C479.828 86.8494 480.115 86.8494 480.115 86.8494C482.172 86.8494 483.858 86.1914 485.173 84.8755C486.489 83.5596 487.188 81.997 487.271 80.1876H487.517ZM487.517 21.8357H487.271C487.188 19.9441 486.489 18.3815 485.173 17.1478C483.858 15.9142 482.172 15.2973 480.115 15.2973C480.115 15.2973 479.828 15.2973 479.252 15.2973C478.676 15.2973 478.388 15.2973 478.388 15.2973V14.0637H489.121L487.517 21.8357ZM559.579 14.0637H575.493C579.359 14.0637 582.813 14.516 585.856 15.4207C588.981 16.3254 591.613 17.6413 593.752 19.3684C595.972 21.0955 597.658 23.1927 598.81 25.6601C599.961 28.1274 600.537 30.9236 600.537 34.0489C600.537 37.5031 599.714 40.7106 598.069 43.6714C596.424 46.6322 594.122 49.0584 591.161 50.95C588.282 52.8416 584.993 53.993 581.292 54.4042C582.69 54.9799 584.294 56.2547 586.103 58.2286C587.994 60.2024 589.598 62.1351 590.914 64.0267C590.914 64.0267 591.449 64.7669 592.518 66.2473C593.587 67.6455 594.944 69.4137 596.589 71.552C598.316 73.6081 600.002 75.582 601.647 77.4736C603.374 79.3652 604.937 81.0101 606.335 82.4082C607.815 83.8063 609.378 84.9166 611.023 85.7391C612.75 86.4793 614.724 86.8494 616.944 86.8494V88.083H613.12C608.597 88.083 604.854 87.5073 601.894 86.3559C599.015 85.2045 596.671 83.8063 594.862 82.1615C593.052 80.4343 591.49 78.7895 590.174 77.2268C589.845 76.8156 589.064 75.7876 587.83 74.1427C586.679 72.4156 585.404 70.5651 584.006 68.5913C582.608 66.6174 581.333 64.8492 580.181 63.2865C579.03 61.6417 578.331 60.6547 578.084 60.3258C576.439 58.1874 574.548 56.2958 572.409 54.6509C570.271 52.9238 568.009 52.0603 565.624 52.0603V50.8266C565.624 50.8266 566.282 50.8677 567.598 50.95C568.914 50.95 570.6 50.9089 572.656 50.8266C574.959 50.7444 577.262 50.5799 579.565 50.3332C581.867 50.0042 584.006 49.0995 585.98 47.6191C588.036 46.1387 589.639 43.6714 590.791 40.2172C591.12 39.3125 591.366 38.2433 591.531 37.0097C591.695 35.776 591.737 34.5012 591.654 33.1854C591.572 30.8825 591.12 28.8264 590.297 27.0171C589.557 25.2077 588.447 23.6451 586.966 22.3292C585.568 21.0133 583.882 19.9852 581.908 19.245C579.935 18.5049 577.714 18.0936 575.247 18.0114C571.381 17.8469 568.009 17.8058 565.131 17.888C562.252 17.9703 560.813 17.9703 560.813 17.888C560.813 17.8058 560.69 17.4768 560.443 16.9011C560.278 16.2432 560.073 15.6263 559.826 15.0506C559.662 14.3927 559.579 14.0637 559.579 14.0637ZM561.06 14.0637V88.083H553.164V14.0637H561.06ZM553.534 80.1876L555.015 88.083H544.529V86.8494C544.529 86.8494 544.817 86.8494 545.392 86.8494C545.968 86.8494 546.256 86.8494 546.256 86.8494C548.23 86.8494 549.875 86.1914 551.19 84.8755C552.506 83.5596 553.205 81.997 553.288 80.1876H553.534ZM553.534 21.8357H553.288C553.205 19.9441 552.506 18.3815 551.19 17.1478C549.875 15.9142 548.23 15.2973 546.256 15.2973C546.256 15.2973 545.968 15.2973 545.392 15.2973C544.817 15.2973 544.529 15.2973 544.529 15.2973V14.0637H555.015L553.534 21.8357ZM560.69 80.1876H561.06C561.142 81.997 561.841 83.5596 563.157 84.8755C564.473 86.1914 566.118 86.8494 568.092 86.8494C568.092 86.8494 568.338 86.8494 568.832 86.8494C569.407 86.8494 569.695 86.8494 569.695 86.8494L569.819 88.083H559.209L560.69 80.1876ZM656.539 12.3366L690.464 87.3428H680.718L654.442 23.3161L656.539 12.3366ZM632.729 79.0773C631.825 81.5446 631.948 83.4774 633.099 84.8755C634.251 86.1914 635.567 86.8494 637.047 86.8494H638.034V88.083H614.471V86.8494C614.471 86.8494 614.636 86.8494 614.965 86.8494C615.294 86.8494 615.458 86.8494 615.458 86.8494C617.185 86.8494 618.953 86.2736 620.763 85.1222C622.572 83.8886 624.135 81.8736 625.451 79.0773H632.729ZM656.539 12.3366L657.402 20.8488L629.152 87.7129H621.38L650.617 25.0432C650.617 25.0432 650.823 24.5498 651.234 23.5628C651.728 22.5759 652.262 21.3834 652.838 19.9852C653.496 18.5049 654.071 17.0656 654.565 15.6674C655.058 14.2693 655.346 13.159 655.428 12.3366H656.539ZM671.096 59.3388V63.0398H638.404V59.3388H671.096ZM677.388 79.0773H686.763C687.997 81.8736 689.518 83.8886 691.328 85.1222C693.137 86.2736 694.864 86.8494 696.509 86.8494C696.509 86.8494 696.674 86.8494 697.003 86.8494C697.332 86.8494 697.496 86.8494 697.496 86.8494V88.083H672.206V86.8494H673.193C674.591 86.8494 675.866 86.1914 677.017 84.8755C678.169 83.4774 678.292 81.5446 677.388 79.0773ZM815.321 52.0603L813.84 71.4287C811.702 74.9651 808.988 78.1315 805.698 80.9278C802.491 83.6418 798.666 85.8213 794.225 87.4662C789.866 89.0288 784.85 89.8101 779.175 89.8101C770.621 89.7279 763.014 87.8363 756.352 84.1353C749.69 80.4343 744.468 75.253 740.685 68.5913C736.984 61.8473 735.133 53.9108 735.133 44.7817C735.133 35.8171 736.984 28.004 740.685 21.3423C744.386 14.5983 749.567 9.3758 756.229 5.67484C762.973 1.89163 770.868 2.32094e-05 779.915 2.32094e-05C786.001 2.32094e-05 791.47 0.822462 796.322 2.46734C801.257 4.02997 805.534 6.00382 809.153 8.38888L811.62 25.7834H810.51C808.7 18.546 804.999 13.0768 799.407 9.37581C793.814 5.5926 787.317 3.70099 779.915 3.70099C772.677 3.70099 766.386 5.42811 761.04 8.88234C755.776 12.2543 751.664 17.0245 748.703 23.1927C745.825 29.2788 744.386 36.434 744.386 44.6583C744.386 52.8827 745.825 60.079 748.703 66.2473C751.664 72.4156 755.735 77.2268 760.917 80.6811C766.18 84.1353 772.266 85.9447 779.175 86.1092C785.014 86.1092 790.401 85.04 795.336 82.9017C800.352 80.6811 804.547 77.1035 807.919 72.1689C811.291 67.152 813.429 60.4491 814.334 52.0603H815.321ZM862.911 12.3366L896.836 87.3428H887.091L860.814 23.3161L862.911 12.3366ZM839.101 79.0773C838.197 81.5446 838.32 83.4774 839.472 84.8755C840.623 86.1914 841.939 86.8494 843.419 86.8494H844.406V88.083H820.843V86.8494C820.843 86.8494 821.008 86.8494 821.337 86.8494C821.666 86.8494 821.83 86.8494 821.83 86.8494C823.557 86.8494 825.326 86.2736 827.135 85.1222C828.944 83.8886 830.507 81.8736 831.823 79.0773H839.101ZM862.911 12.3366L863.775 20.8488L835.524 87.7129H827.752L856.989 25.0432C856.989 25.0432 857.195 24.5498 857.606 23.5628C858.1 22.5759 858.634 21.3834 859.21 19.9852C859.868 18.5049 860.444 17.0656 860.937 15.6674C861.431 14.2693 861.718 13.159 861.801 12.3366H862.911ZM877.468 59.3388V63.0398H844.776V59.3388H877.468ZM883.76 79.0773H893.136C894.369 81.8736 895.891 83.8886 897.7 85.1222C899.509 86.2736 901.237 86.8494 902.881 86.8494C902.881 86.8494 903.046 86.8494 903.375 86.8494C903.704 86.8494 903.868 86.8494 903.868 86.8494V88.083H878.578V86.8494H879.565C880.963 86.8494 882.238 86.1914 883.39 84.8755C884.541 83.4774 884.664 81.5446 883.76 79.0773ZM925.221 14.0637H938.915C944.672 14.0637 949.648 14.9273 953.842 16.6544C958.036 18.2992 961.285 20.7254 963.588 23.9329C965.891 27.0582 967.042 30.8003 967.042 35.1592C967.042 39.8471 965.973 43.877 963.835 47.249C961.778 50.5388 959.023 53.0883 955.569 54.8977C952.115 56.6248 948.291 57.4884 944.096 57.4884C939.902 57.4061 935.707 56.3369 931.513 54.2809V53.0472C931.513 53.0472 932.171 53.1706 933.487 53.4173C934.885 53.664 936.653 53.7874 938.791 53.7874C940.93 53.7051 943.191 53.3351 945.576 52.6771C947.962 51.9369 950.182 50.621 952.238 48.7294C954.377 46.8378 956.063 44.1238 957.296 40.5873C957.625 39.6826 957.831 38.6134 957.913 37.3798C958.077 36.1461 958.16 34.9947 958.16 33.9255C958.16 28.9087 956.433 24.961 952.978 22.0825C949.524 19.2039 944.754 17.7647 938.668 17.7647H926.578C926.578 17.7647 926.455 17.4768 926.208 16.9011C926.044 16.2432 925.838 15.6263 925.591 15.0506C925.345 14.3927 925.221 14.0637 925.221 14.0637ZM926.825 14.0637V88.083H918.93V14.0637H926.825ZM919.176 80.1876L920.78 88.083H910.047V86.8494C910.047 86.8494 910.335 86.8494 910.911 86.8494C911.486 86.8494 911.774 86.8494 911.774 86.8494C913.748 86.8494 915.393 86.1914 916.709 84.8755C918.107 83.5596 918.847 81.997 918.93 80.1876H919.176ZM919.176 21.8357H918.93C918.847 19.9441 918.107 18.3815 916.709 17.1478C915.393 15.9142 913.748 15.2973 911.774 15.2973C911.774 15.2973 911.486 15.2973 910.911 15.2973C910.335 15.2973 910.047 15.2973 910.047 15.2973V14.0637H920.78L919.176 21.8357ZM926.455 80.1876H926.702C926.784 81.997 927.483 83.5596 928.799 84.8755C930.197 86.1914 931.883 86.8494 933.857 86.8494C933.939 86.8494 934.227 86.8494 934.72 86.8494C935.296 86.8494 935.584 86.8494 935.584 86.8494V88.083H924.851L926.455 80.1876ZM996.124 14.0637V88.083H988.352V14.0637H996.124ZM988.722 80.1876V88.083H978.236V86.8494C978.236 86.8494 978.523 86.8494 979.099 86.8494C979.675 86.8494 979.963 86.8494 979.963 86.8494C982.266 86.8494 984.198 86.1914 985.761 84.8755C987.406 83.5596 988.269 81.997 988.352 80.1876H988.722ZM995.754 80.1876H996.124C996.206 81.997 997.028 83.5596 998.591 84.8755C1000.24 86.1914 1002.21 86.8494 1004.51 86.8494C1004.51 86.8494 1004.76 86.8494 1005.25 86.8494C1005.83 86.8494 1006.12 86.8494 1006.12 86.8494L1006.24 88.083H995.754V80.1876ZM995.754 21.9591V14.0637H1006.24L1006.12 15.2973C1006.12 15.2973 1005.83 15.2973 1005.25 15.2973C1004.76 15.2973 1004.51 15.2973 1004.51 15.2973C1002.21 15.2973 1000.24 15.9553 998.591 17.2712C997.028 18.5049 996.206 20.0675 996.124 21.9591H995.754ZM988.722 21.9591H988.352C988.269 20.0675 987.406 18.5049 985.761 17.2712C984.198 15.9553 982.266 15.2973 979.963 15.2973C979.88 15.2973 979.552 15.2973 978.976 15.2973C978.482 15.2973 978.236 15.2973 978.236 15.2973V14.0637H988.722V21.9591ZM1052.62 14.4338V88.083H1044.6V14.4338H1052.62ZM1082.47 13.9403V17.6413H1014.74V13.9403H1082.47ZM1082.47 17.3946V25.9068H1081.11V23.9329C1081.11 22.2058 1080.54 20.7666 1079.39 19.6151C1078.32 18.3815 1076.84 17.7235 1074.95 17.6413V17.3946H1082.47ZM1082.47 11.9665V15.174L1068.65 13.9403C1070.3 13.9403 1072.03 13.8581 1073.84 13.6936C1075.73 13.4469 1077.45 13.159 1079.02 12.83C1080.58 12.5011 1081.73 12.2132 1082.47 11.9665ZM1044.85 80.1876V88.083H1035.84V86.8494C1035.92 86.8494 1036.17 86.8494 1036.58 86.8494C1037.07 86.8494 1037.32 86.8494 1037.32 86.8494C1039.29 86.8494 1040.98 86.1914 1042.38 84.8755C1043.78 83.5596 1044.52 81.997 1044.6 80.1876H1044.85ZM1052.25 80.1876H1052.62C1052.7 81.997 1053.44 83.5596 1054.84 84.8755C1056.24 86.1914 1057.92 86.8494 1059.9 86.8494C1059.9 86.8494 1060.1 86.8494 1060.51 86.8494C1061.01 86.8494 1061.25 86.8494 1061.25 86.8494V88.083H1052.25V80.1876ZM1022.27 17.3946V17.6413C1020.38 17.7235 1018.86 18.3815 1017.7 19.6151C1016.64 20.7666 1016.1 22.2058 1016.1 23.9329V25.9068H1014.74V17.3946H1022.27ZM1014.74 11.9665C1015.48 12.2132 1016.59 12.5011 1018.07 12.83C1019.64 13.159 1021.36 13.4469 1023.26 13.6936C1025.15 13.8581 1026.92 13.9403 1028.56 13.9403L1014.74 15.174V11.9665ZM1116.99 12.3366L1150.92 87.3428H1141.17L1114.89 23.3161L1116.99 12.3366ZM1093.18 79.0773C1092.28 81.5446 1092.4 83.4774 1093.55 84.8755C1094.7 86.1914 1096.02 86.8494 1097.5 86.8494H1098.49V88.083H1074.92V86.8494C1074.92 86.8494 1075.09 86.8494 1075.42 86.8494C1075.75 86.8494 1075.91 86.8494 1075.91 86.8494C1077.64 86.8494 1079.41 86.2736 1081.21 85.1222C1083.02 83.8886 1084.59 81.8736 1085.9 79.0773H1093.18ZM1116.99 12.3366L1117.85 20.8488L1089.6 87.7129H1081.83L1111.07 25.0432C1111.07 25.0432 1111.27 24.5498 1111.69 23.5628C1112.18 22.5759 1112.71 21.3834 1113.29 19.9852C1113.95 18.5049 1114.52 17.0656 1115.02 15.6674C1115.51 14.2693 1115.8 13.159 1115.88 12.3366H1116.99ZM1131.55 59.3388V63.0398H1098.86V59.3388H1131.55ZM1137.84 79.0773H1147.22C1148.45 81.8736 1149.97 83.8886 1151.78 85.1222C1153.59 86.2736 1155.32 86.8494 1156.96 86.8494C1156.96 86.8494 1157.13 86.8494 1157.45 86.8494C1157.78 86.8494 1157.95 86.8494 1157.95 86.8494V88.083H1132.66V86.8494H1133.65C1135.04 86.8494 1136.32 86.1914 1137.47 84.8755C1138.62 83.4774 1138.74 81.5446 1137.84 79.0773ZM1180.9 14.0637V88.083H1173.01V14.0637H1180.9ZM1214.09 84.2587L1213.84 88.083H1180.66V84.2587H1214.09ZM1221 70.4417L1214.21 88.083H1195.46L1199.66 84.2587C1203.77 84.2587 1207.06 83.683 1209.53 82.5316C1212.08 81.2979 1214.13 79.653 1215.69 77.5969C1217.26 75.4586 1218.61 73.0735 1219.77 70.4417H1221ZM1173.26 80.1876L1174.86 88.083H1164.13V86.8494C1164.13 86.8494 1164.42 86.8494 1164.99 86.8494C1165.57 86.8494 1165.85 86.8494 1165.85 86.8494C1167.91 86.8494 1169.6 86.1914 1170.91 84.8755C1172.23 83.5596 1172.93 81.997 1173.01 80.1876H1173.26ZM1180.53 21.9591V14.0637H1189.66V15.2973C1189.66 15.2973 1189.42 15.2973 1188.92 15.2973C1188.43 15.2973 1188.18 15.2973 1188.18 15.2973C1186.21 15.2973 1184.48 15.9553 1183 17.2712C1181.6 18.5049 1180.9 20.0675 1180.9 21.9591H1180.53ZM1173.26 21.9591H1173.01C1172.93 20.0675 1172.19 18.5049 1170.79 17.2712C1169.39 15.9553 1167.66 15.2973 1165.61 15.2973C1165.61 15.2973 1165.36 15.2973 1164.87 15.2973C1164.37 15.2973 1164.13 15.2973 1164.13 15.2973V14.0637H1173.26V21.9591Z" fill="white"/>
</svg>
